<svg width="480" height="186" viewBox="0 0 480 186" fill="none" xmlns="http://www.w3.org/2000/svg">
<g clip-path="url(#clip0_701_1657)">
<path d="M90 49C90 24.1472 69.8528 4 45 4C20.1472 4 0 24.1472 0 49C0 71.4605 16.4558 90.0774 37.9688 93.4533V62.0078H26.543V49H37.9688V39.0859C37.9688 27.8078 44.6871 21.5781 54.9659 21.5781C59.8878 21.5781 65.0391 22.457 65.0391 22.457V33.5313H59.3648C53.775 33.5313 52.0312 37.0003 52.0312 40.5625V49H64.5117L62.5166 62.0078H52.0312V93.4533C73.5442 90.0774 90 71.4605 90 49Z" fill="#954CED"/>
<path d="M62.5166 62.0078L64.5117 49H52.0312V40.5625C52.0312 37.0038 53.775 33.5312 59.3648 33.5312H65.0391V22.457C65.0391 22.457 59.8896 21.5781 54.9659 21.5781C44.6871 21.5781 37.9688 27.8078 37.9688 39.0859V49H26.543V62.0078H37.9688V93.4533C42.6279 94.1822 47.3721 94.1822 52.0312 93.4533V62.0078H62.5166Z" fill="white"/>
</g>
<rect x="130" y="96" width="90" height="90" rx="45" fill="#954CED"/>
<g clip-path="url(#clip1_701_1657)">
<path d="M166.872 159.663C183.955 159.663 193.299 145.51 193.299 133.236C193.299 132.834 193.299 132.434 193.272 132.035C195.09 130.721 196.659 129.093 197.906 127.228C196.211 127.979 194.413 128.472 192.571 128.689C194.51 127.528 195.961 125.703 196.655 123.552C194.831 124.634 192.837 125.396 190.757 125.806C189.356 124.317 187.504 123.331 185.487 123.001C183.47 122.67 181.4 123.014 179.598 123.978C177.795 124.943 176.361 126.475 175.517 128.336C174.673 130.198 174.466 132.286 174.928 134.277C171.236 134.092 167.623 133.132 164.325 131.46C161.028 129.789 158.118 127.442 155.786 124.573C154.598 126.618 154.235 129.038 154.769 131.342C155.303 133.645 156.695 135.659 158.662 136.972C157.183 136.928 155.738 136.53 154.446 135.809V135.927C154.447 138.071 155.189 140.149 156.547 141.809C157.905 143.468 159.796 144.607 161.898 145.032C160.53 145.405 159.096 145.459 157.704 145.191C158.297 147.036 159.453 148.65 161.009 149.807C162.565 150.963 164.443 151.605 166.381 151.641C164.455 153.155 162.25 154.274 159.892 154.935C157.533 155.595 155.067 155.784 152.635 155.491C156.883 158.217 161.825 159.663 166.872 159.656" fill="white"/>
</g>
<rect x="260" y="4" width="90" height="90" rx="45" fill="#954CED"/>
<g clip-path="url(#clip2_701_1657)">
<path d="M305.271 30.7114C311.318 30.7114 312.035 30.738 314.413 30.8441C316.624 30.9413 317.817 31.3127 318.613 31.6222C319.665 32.0289 320.426 32.524 321.213 33.311C322.008 34.1067 322.495 34.8583 322.901 35.9105C323.211 36.7063 323.582 37.9088 323.679 40.1104C323.786 42.4977 323.812 43.2139 323.812 49.2529C323.812 55.3008 323.786 56.017 323.679 58.3955C323.582 60.6059 323.211 61.7996 322.901 62.5954C322.495 63.6476 321.999 64.408 321.213 65.1949C320.417 65.9907 319.665 66.477 318.613 66.8837C317.817 67.1932 316.615 67.5645 314.413 67.6618C312.026 67.7679 311.31 67.7944 305.271 67.7944C299.223 67.7944 298.506 67.7679 296.128 67.6618C293.918 67.5645 292.724 67.1932 291.928 66.8837C290.876 66.477 290.116 65.9818 289.329 65.1949C288.533 64.3991 288.047 63.6476 287.64 62.5954C287.33 61.7996 286.959 60.5971 286.862 58.3955C286.756 56.0081 286.729 55.292 286.729 49.2529C286.729 43.2051 286.756 42.4889 286.862 40.1104C286.959 37.8999 287.33 36.7063 287.64 35.9105C288.047 34.8583 288.542 34.0979 289.329 33.311C290.124 32.5152 290.876 32.0289 291.928 31.6222C292.724 31.3127 293.926 30.9413 296.128 30.8441C298.506 30.738 299.223 30.7114 305.271 30.7114ZM305.271 26.6353C299.125 26.6353 298.356 26.6618 295.942 26.7679C293.537 26.874 291.884 27.2631 290.452 27.8201C288.957 28.4037 287.693 29.1729 286.437 30.4373C285.173 31.6929 284.404 32.9573 283.82 34.4427C283.263 35.884 282.874 37.5285 282.768 39.9336C282.662 42.3562 282.635 43.1255 282.635 49.2706C282.635 55.4157 282.662 56.185 282.768 58.5988C282.874 61.0038 283.263 62.6573 283.82 64.0897C284.404 65.5839 285.173 66.8483 286.437 68.1039C287.693 69.3594 288.957 70.1375 290.443 70.7122C291.884 71.2693 293.528 71.6583 295.933 71.7644C298.347 71.8705 299.117 71.8971 305.262 71.8971C311.407 71.8971 312.176 71.8705 314.59 71.7644C316.995 71.6583 318.648 71.2693 320.081 70.7122C321.566 70.1375 322.831 69.3594 324.086 68.1039C325.342 66.8483 326.12 65.5839 326.694 64.0985C327.252 62.6573 327.641 61.0127 327.747 58.6077C327.853 56.1938 327.879 55.4246 327.879 49.2795C327.879 43.1343 327.853 42.3651 327.747 39.9512C327.641 37.5462 327.252 35.8928 326.694 34.4604C326.137 32.9573 325.368 31.6929 324.104 30.4373C322.848 29.1818 321.584 28.4037 320.098 27.829C318.657 27.2719 317.013 26.8829 314.608 26.7768C312.185 26.6618 311.416 26.6353 305.271 26.6353Z" fill="white"/>
<path d="M305.271 37.6435C298.851 37.6435 293.644 42.8514 293.644 49.2706C293.644 55.6898 298.851 60.8977 305.271 60.8977C311.69 60.8977 316.898 55.6898 316.898 49.2706C316.898 42.8514 311.69 37.6435 305.271 37.6435ZM305.271 56.8128C301.106 56.8128 297.729 53.4351 297.729 49.2706C297.729 45.1061 301.106 41.7285 305.271 41.7285C309.435 41.7285 312.813 45.1061 312.813 49.2706C312.813 53.4351 309.435 56.8128 305.271 56.8128Z" fill="white"/>
<path d="M320.072 37.1836C320.072 38.6868 318.852 39.8981 317.358 39.8981C315.854 39.8981 314.643 38.6779 314.643 37.1836C314.643 35.6805 315.863 34.4692 317.358 34.4692C318.852 34.4692 320.072 35.6894 320.072 37.1836Z" fill="white"/>
</g>
<rect x="390" y="96" width="90" height="90" rx="45" fill="#954CED"/>
<g clip-path="url(#clip3_701_1657)">
<path d="M444.839 118.635H437.209V149.472C437.209 153.146 434.275 156.164 430.623 156.164C426.971 156.164 424.037 153.146 424.037 149.472C424.037 145.863 426.906 142.911 430.428 142.78V135.038C422.668 135.169 416.408 141.533 416.408 149.472C416.408 157.476 422.798 163.906 430.688 163.906C438.579 163.906 444.969 157.411 444.969 149.472V133.66C447.838 135.759 451.359 137.006 455.076 137.072V129.33C449.338 129.133 444.839 124.409 444.839 118.635Z" fill="white"/>
</g>
<defs>
<clipPath id="clip0_701_1657">
<rect y="4" width="90" height="90" rx="45" fill="white"/>
</clipPath>
<clipPath id="clip1_701_1657">
<rect width="45.2706" height="45.2706" fill="white" transform="translate(152.635 118.635)"/>
</clipPath>
<clipPath id="clip2_701_1657">
<rect width="45.2706" height="45.2706" fill="white" transform="translate(282.635 26.6353)"/>
</clipPath>
<clipPath id="clip3_701_1657">
<rect width="45.2706" height="45.2706" fill="white" transform="translate(412.635 118.635)"/>
</clipPath>
</defs>
</svg>
