<svg width="229" height="95" viewBox="0 0 229 95" fill="none" xmlns="http://www.w3.org/2000/svg">
<g clip-path="url(#clip0_601_1660)">
<g opacity="0.7">
<path fill-rule="evenodd" clip-rule="evenodd" d="M177.764 129.321C182.921 131.298 188.704 128.72 190.681 123.563L212.678 66.1809C214.655 61.024 212.077 55.2409 206.92 53.2641L196.72 49.354L185.555 45.0743L174.391 40.7946L164.273 36.9161L163.493 36.617C158.336 34.6402 152.553 37.2182 150.576 42.3751L128.579 99.7574C126.603 104.914 129.18 110.697 134.337 112.674L177.764 129.321Z" fill="#FFAA4C"/>
<path d="M196.72 49.354L206.92 53.2641C212.077 55.2409 214.655 61.024 212.678 66.1809L190.681 123.563C188.704 128.72 182.921 131.298 177.764 129.321L134.337 112.674C129.18 110.697 126.603 104.914 128.579 99.7574L150.576 42.3751C152.553 37.2182 158.336 34.6402 163.493 36.617L164.273 36.9161M196.72 49.354C198.697 42.1088 200.085 26.795 189.823 23.5015C179.561 20.208 175.259 33.6579 174.391 40.7946M196.72 49.354L185.555 45.0743M174.391 40.7946L185.555 45.0743M174.391 40.7946L164.273 36.9161M185.555 45.0743C189.455 35.1612 194.954 14.6408 185.753 11.8638C176.552 9.08671 167.599 27.4082 164.273 36.9161" stroke="#FFAA4C" stroke-width="2" stroke-linecap="round" stroke-linejoin="round"/>
</g>
</g>
<g clip-path="url(#clip1_601_1660)">
<g opacity="0.7">
<path fill-rule="evenodd" clip-rule="evenodd" d="M39.9909 114.52C35.2943 117.425 29.1313 115.974 26.2256 111.277L6.00026 78.5849C3.09458 73.8883 4.54648 67.7253 9.24316 64.8196L13.5061 62.1823L20.8015 57.6689L28.0969 53.1555L34.7084 49.0652V49.0652C38.3598 46.8061 43.1512 47.9349 45.4102 51.5863L66.8065 86.1709C69.7122 90.8676 68.2603 97.0305 63.5636 99.9362L39.9909 114.52Z" fill="#2FDBBC"/>
<path d="M13.5061 62.1823L9.24316 64.8196C4.54648 67.7253 3.09458 73.8883 6.00026 78.5849L26.2256 111.277C29.1313 115.974 35.2943 117.425 39.9909 114.52L63.5636 99.9362C68.2603 97.0305 69.7122 90.8676 66.8065 86.1709L45.4102 51.5863C43.1512 47.9349 38.3598 46.8061 34.7084 49.0652V49.0652M13.5061 62.1823C11.1411 57.3406 8.10916 46.7328 14.9007 43.0355C21.6923 39.3381 26.528 48.2416 28.0969 53.1555M13.5061 62.1823L20.8015 57.6689M28.0969 53.1555L20.8015 57.6689M28.0969 53.1555L34.7084 49.0652M20.8015 57.6689C16.7236 51.2045 10.0961 37.4779 16.2092 34.2869C22.3224 31.0958 31.0892 42.8094 34.7084 49.0652" stroke="#2FDBBC" stroke-width="2" stroke-linecap="round" stroke-linejoin="round"/>
</g>
</g>
<defs>
<clipPath id="clip0_601_1660">
<rect width="93" height="86" fill="white" transform="translate(125 9)"/>
</clipPath>
<clipPath id="clip1_601_1660">
<rect width="72" height="64" fill="white" transform="translate(0 31)"/>
</clipPath>
</defs>
</svg>
